<svg width="48" height="48" viewBox="0 0 48 48" fill="none" xmlns="http://www.w3.org/2000/svg">
<path d="M22.9769 33.4999H25.2461V25.2769H33.4999V23.0077H25.2461V14.5H22.9769V23.0077H14.5V25.2769H22.9769V33.4999ZM24.0166 42.9999C21.3848 42.9999 18.9198 42.5012 16.6218 41.5039C14.3237 40.5066 12.3111 39.1447 10.584 37.4184C8.85687 35.692 7.49442 33.6791 6.49665 31.3795C5.49888 29.08 5 26.6129 5 23.9783C5 21.3565 5.49867 18.8921 6.496 16.5851C7.49333 14.2781 8.85517 12.2694 10.5815 10.559C12.3079 8.84853 14.3208 7.49442 16.6203 6.49665C18.9199 5.49888 21.387 5 24.0216 5C26.6434 5 29.1078 5.49867 31.4148 6.496C33.7218 7.49333 35.7305 8.84683 37.4409 10.5565C39.1514 12.2662 40.5055 14.2767 41.5033 16.588C42.501 18.8992 42.9999 21.3643 42.9999 23.9833C42.9999 26.6151 42.5012 29.0801 41.5039 31.3782C40.5066 33.6762 39.1531 35.6857 37.4434 37.4067C35.7337 39.1277 33.7232 40.4901 31.412 41.494C29.1007 42.4979 26.6356 42.9999 24.0166 42.9999ZM24.025 40.7307C28.6647 40.7307 32.6089 39.1012 35.8577 35.8423C39.1064 32.5833 40.7307 28.6275 40.7307 23.975C40.7307 19.3352 39.1095 15.391 35.867 12.1423C32.6245 8.89355 28.6689 7.2692 24 7.2692C19.3641 7.2692 15.4166 8.89043 12.1577 12.1329C8.89868 15.3754 7.2692 19.3311 7.2692 24C7.2692 28.6359 8.89868 32.5833 12.1577 35.8423C15.4166 39.1012 19.3724 40.7307 24.025 40.7307Z" fill="#6F757B"/>
</svg>
